<svg shape-rendering="crispEdges" version="1.1" viewBox="0 0 18 36" xmlns="http://www.w3.org/2000/svg">
  <path d="m5 0.5h6m-7 1h1m6 0h2m-9 1h1m8 0h2m-11 1h1m10 0h1m-11 1h5m6 0h1m-7 1h2m4 0h1m-5 1h1m4 0h1m-1 1h1m-5 1h1m3 0h1m-5 1h1m3 0h1m-5 1h1m3 0h1m-6 1h1m4 0h1m-7 1h1m4 0h1m-8 1h2m5 0h1m-10 1h2m6 0h1m-10 1h1m6 0h2m-9 1h1m4 0h2m-7 1h1m4 0h1m-6 1h1m4 0h1m-7 1h1m6 0h1m0 1h1m0 1h1m-7 1h3m4 0h1m-5 1h1m4 0h1m-5 1h1m3 0h1m-4 1h1m3 0h1m-5 1h1m3 0h1m-18 1h1m3 0h1m2 0h2m1 0h1m2 0h1m3 0h1m-18 1h1m3 0h1m3 0h2m3 0h1m3 0h1m-17 1h1m3 0h1m6 0h1m3 0h1m-16 1h1m4 0h1m4 0h1m4 0h1m-15 1h1m4 0h4m4 0h1m-13 1h1m10 0h1m-11 1h1m8 0h1m-9 1h2m4 0h2m-6 1h4" stroke="#101010"/>
  <path d="m5 1.5h2m-2 1h2m0 13h1m-2 5h2m-3 1h1m-2 1h1m-2 1h1m3 0h1m-5 1h1m2 0h1m-5 1h1m2 3h1m6 0h1m-6 2h1m2 0h1" stroke="#dedede"/>
  <path d="m7 1.5h2m-2 1h5m0 1h2m0 1h1m-2 8h1m-2 1h1m-4 1h3m-4 1h1m-2 1h1m-1 1h1m0 3h1m-3 1h2m-3 1h1m-2 1h1m3 0h1m-7 1h1m4 0h2m-6 1h1m1 0h2m-5 1h1m-1 1h1m4 1h1m2 0h1m2 2h1m-2 1h1m-4 1h3" stroke="#a4a4a4"/>
  <path d="m9 1.5h2m1 1h1m-8 1h7m2 0h1m-5 1h4m-2 1h4m-3 1h3m-3 1h4m-3 1h3m-3 1h3m-3 1h2m-3 1h3m-2 1h1m-4 1h1m1 0h2m-3 1h2m-5 1h3m-4 1h2m-2 1h2m-3 1h3m-3 1h4m-6 1h1m3 0h3m-8 1h1m3 0h5m-10 1h1m2 0h1m4 0h3m-12 1h1m6 0h2m2 0h2m-11 1h1m4 0h3m1 0h2m-14 1h1m5 0h6m1 0h2m-15 1h1m1 0h1m10 0h2m-15 1h1m1 0h1m5 0h1m4 0h2m-15 1h3m10 0h2m-14 1h3m8 0h2m-12 1h2m9 0h1m-12 1h4m4 0h1m1 0h1m-10 1h5m3 0h1m-7 1h5" stroke="#737373"/>
  <path d="m15 4.5h1m0 2h1m-1 4h1m-1 1h1m-5 1h1m2 0h1m-1 1h1m-2 1h1m-3 1h1m-3 1h1m-1 1h1m-1 1h1m-5 1h1m4 0h1m-8 1h1m7 0h1m-10 1h1m9 0h1m-12 1h1m4 0h1m6 0h1m-14 1h1m3 0h2m5 0h1m2 0h1m-15 1h1m3 0h1m9 0h1m-16 1h1m3 0h1m11 0h1m-17 1h1m3 0h9m3 0h1m-1 1h1m-1 1h1m-2 1h1m-14 1h1m2 0h1m6 0h1m2 0h1m-2 1h1m-2 1h1m-9 1h1m5 0h2m-6 1h4" stroke="#525252"/>
  <path d="m5 28h2m4 0h2m-7 1h1m4 0h1m-6 1h6m-4 1h2" stroke="#ffffff"/>
</svg>
