<svg xmlns="http://www.w3.org/2000/svg" viewBox="0 -0.5 80 80" shape-rendering="crispEdges">
<path stroke="#101010" d="M36 23h6M35 24h1M42 24h2M35 25h1M44 25h2M35 26h1M46 26h1M36 27h5M47 27h1M41 28h2M47 28h1M43 29h1M48 29h1M48 30h1M44 31h1M48 31h1M44 32h1M48 32h1M44 33h1M48 33h1M43 34h1M48 34h1M42 35h1M47 35h1M40 36h2M47 36h1M38 37h2M46 37h1M37 38h1M44 38h2M37 39h1M42 39h2M37 40h1M42 40h1M37 41h1M42 41h1M36 42h1M43 42h1M44 43h1M45 44h1M39 45h3M46 45h1M42 46h1M47 46h1M43 47h1M47 47h1M44 48h1M48 48h1M44 49h1M48 49h1M31 50h1M35 50h1M38 50h2M41 50h1M44 50h1M48 50h1M31 51h1M35 51h1M39 51h2M44 51h1M48 51h1M32 52h1M36 52h1M43 52h1M47 52h1M32 53h1M37 53h1M42 53h1M47 53h1M33 54h1M38 54h4M46 54h1M34 55h1M45 55h1M35 56h1M44 56h1M36 57h2M42 57h2M38 58h4" />
<path stroke="#dedede" d="M36 24h2M36 25h2M38 38h1M37 43h2M36 44h1M35 45h1M34 46h1M38 46h1M34 47h1M37 47h1M33 48h1M36 51h1M43 51h1M38 53h1M41 53h1" />
<path stroke="#a4a4a4" d="M38 24h2M38 25h5M43 26h2M45 27h1M44 35h1M43 36h1M40 37h3M39 38h1M38 39h1M38 40h1M39 43h1M37 44h2M36 45h1M35 46h1M39 46h1M33 47h1M38 47h2M34 48h1M36 48h2M33 49h1M33 50h1M38 51h1M41 51h1M44 53h1M43 54h1M40 55h3" />
<path stroke="#737373" d="M40 24h2M43 25h1M36 26h7M45 26h1M41 27h4M43 28h4M44 29h3M44 30h4M45 31h3M45 32h3M45 33h2M44 34h3M45 35h1M42 36h1M44 36h2M43 37h2M40 38h3M39 39h2M39 40h2M38 41h3M38 42h4M36 43h1M40 43h3M35 44h1M39 44h5M34 45h1M37 45h1M42 45h3M33 46h1M40 46h2M44 46h2M35 47h1M40 47h3M44 47h2M32 48h1M38 48h6M45 48h2M32 49h1M34 49h1M45 49h2M32 50h1M34 50h1M40 50h1M45 50h2M32 51h3M45 51h2M33 52h3M44 52h2M34 53h2M45 53h1M34 54h4M42 54h1M44 54h1M35 55h5M43 55h1M37 56h5" />
<path stroke="#525252" d="M46 27h1M47 29h1M47 33h1M47 34h1M43 35h1M46 35h1M46 36h1M45 37h1M43 38h1M41 39h1M41 40h1M41 41h1M37 42h1M42 42h1M35 43h1M43 43h1M34 44h1M44 44h1M33 45h1M38 45h1M45 45h1M32 46h1M36 46h2M43 46h1M46 46h1M32 47h1M36 47h1M46 47h1M31 48h1M35 48h1M47 48h1M31 49h1M35 49h9M47 49h1M47 50h1M47 51h1M46 52h1M33 53h1M36 53h1M43 53h1M46 53h1M45 54h1M44 55h1M36 56h1M42 56h2M38 57h4" />
<path stroke="#ffffff" d="M36 50h2M42 50h2M37 51h1M42 51h1M37 52h6M39 53h2" />
</svg>